<mxfile host="app.diagrams.net" modified="2023-12-01T15:35:57.392Z" agent="Mozilla/5.0 (Windows NT 10.0; Win64; x64) AppleWebKit/537.36 (KHTML, like Gecko) Chrome/118.0.0.0 Safari/537.36 OPR/104.0.0.0" version="22.1.5" etag="EH_ylZVYyAoyhr13Vmtd" type="github">
  <diagram name="Page-1" id="RRZJ1QJC0x_SIHACOAqd">
    <mxGraphModel>
      <root>
        <mxCell id="0" />
        <mxCell id="1" parent="0" />
      </root>
    </mxGraphModel>
  </diagram>
</mxfile>
